<svg xmlns="http://www.w3.org/2000/svg" width="20" height="20" fill="none"><path fill="#EFEFEF" d="M6.547 18.415c-1.094 0-1.943-.09-2.548-.27-.592-.18-1.004-.464-1.235-.85-.232-.386-.348-.888-.348-1.505v-2.972c0-.412-.096-.74-.289-.984-.18-.245-.45-.419-.81-.522-.348-.115-.785-.173-1.313-.173V8.88c.528 0 .965-.052 1.312-.155.36-.116.63-.296.811-.54.193-.257.29-.586.29-.984V4.21c0-.463.057-.862.173-1.196.129-.335.348-.605.656-.811.31-.206.727-.36 1.255-.463.54-.103 1.222-.155 2.046-.155v2.123c-.335 0-.624.039-.869.116a1.11 1.11 0 0 0-.579.405c-.129.18-.193.45-.193.811v2.818c0 .592-.186 1.061-.56 1.409-.373.347-.92.572-1.64.675v.116c.72.103 1.267.328 1.64.675.374.348.56.817.56 1.41v2.817c0 .36.064.63.193.81.142.194.335.322.58.387.244.077.533.122.868.135v2.123ZM13.453 16.292c.335-.013.624-.058.869-.135a.93.93 0 0 0 .56-.386c.141-.18.212-.45.212-.811v-2.818c0-.592.186-1.061.56-1.409.386-.347.932-.572 1.64-.675v-.116c-.708-.103-1.254-.328-1.64-.675-.374-.348-.56-.817-.56-1.41V5.04c0-.36-.07-.63-.212-.81a1.014 1.014 0 0 0-.56-.406 2.898 2.898 0 0 0-.869-.116V1.585c.824 0 1.5.052 2.027.155.54.103.965.257 1.274.463.308.206.52.476.636.81.13.335.194.734.194 1.197v2.992c0 .398.09.727.27.984.193.244.47.424.83.54.36.103.797.155 1.312.155v2.258c-.515 0-.952.058-1.312.173-.36.103-.637.277-.83.522-.18.244-.27.572-.27.984v2.972c0 .617-.116 1.12-.348 1.505-.232.386-.643.67-1.235.85-.592.18-1.441.27-2.548.27v-2.123Z"/></svg>