<svg xmlns="http://www.w3.org/2000/svg" width="40" height="40" fill="none"><path fill="#EFEFEF" d="M13.092 36.833c-2.188 0-3.887-.18-5.096-.54-1.184-.361-2.008-.927-2.471-1.7-.463-.772-.695-1.776-.695-3.01v-5.946c0-.824-.193-1.48-.58-1.97-.36-.488-.9-.836-1.62-1.042-.696-.231-1.57-.347-2.626-.347V17.76c1.055 0 1.93-.103 2.625-.31.721-.23 1.261-.591 1.622-1.08.386-.515.579-1.171.579-1.969V8.418c0-.927.116-1.725.347-2.394.258-.669.695-1.21 1.313-1.621.618-.412 1.454-.72 2.51-.927 1.08-.206 2.444-.309 4.092-.309v4.247c-.67 0-1.248.077-1.738.232a2.22 2.22 0 0 0-1.158.81c-.257.36-.386.901-.386 1.622v5.637c0 1.184-.373 2.123-1.12 2.818-.746.695-1.84 1.145-3.281 1.351v.232c1.441.206 2.535.656 3.282 1.351.746.695 1.12 1.634 1.12 2.818v5.637c0 .72.128 1.261.385 1.622.283.386.67.643 1.159.772.489.154 1.068.244 1.737.27v4.247ZM26.908 32.586c.67-.026 1.248-.116 1.737-.27.49-.13.863-.387 1.12-.773.283-.36.425-.9.425-1.621v-5.637c0-1.184.373-2.123 1.12-2.818.772-.695 1.865-1.145 3.281-1.351v-.232c-1.416-.206-2.51-.656-3.282-1.351-.746-.695-1.12-1.634-1.12-2.818v-5.637c0-.72-.14-1.261-.424-1.621-.257-.387-.63-.657-1.12-.811-.488-.155-1.068-.232-1.737-.232V3.167c1.647 0 2.999.103 4.054.31 1.08.205 1.93.514 2.548.926.618.412 1.042.952 1.274 1.621.257.67.386 1.467.386 2.394v5.984c0 .798.18 1.454.54 1.969.387.489.94.85 1.66 1.08.721.207 1.597.31 2.626.31v4.517c-1.03 0-1.905.116-2.625.347-.721.206-1.274.554-1.66 1.043-.36.489-.54 1.145-.54 1.969v5.945c0 1.236-.233 2.24-.696 3.011-.463.773-1.287 1.339-2.47 1.7-1.185.36-2.883.54-5.097.54v-4.247Z"/></svg>