<svg xmlns="http://www.w3.org/2000/svg" width="144" height="144" fill="none"><path fill="#2774D3" d="M0 0h144v144H0z"/><path fill="#fff" fill-rule="evenodd" d="M68.667 42a.667.667 0 0 0-.667.667v28.666c0 .368.299.667.667.667h6.666a.667.667 0 0 0 .667-.667V42.667a.667.667 0 0 0-.667-.667h-6.666ZM102 72c0-9.104-4-17.5-10-22s-10 2-6 5.125C90 58 94 64.552 94 72c0 13.255-10 22-22 22s-22-8.745-22-22c0-9.017 4.915-13.838 7.315-16.191.261-.257.493-.484.685-.684C61 52 58 46 52 50S42 62.678 42 72c0 16.569 13.431 30 30 30 16.569 0 30-13.431 30-30Z" clip-rule="evenodd"/><path fill="#fff" fill-opacity=".1" fill-rule="evenodd" d="M0 144h23.624v-7.024H8.629V80.249L38.78 144h17.339l28.181-62.702v55.678H71.472V144h52.288v-6.465h-15.519V77.523h15.938v-10.59H76.47l-23.907 56.446L26.21 66.933H0V144Z" clip-rule="evenodd"/></svg>