<svg xmlns="http://www.w3.org/2000/svg" width="144" height="144" fill="none"><path fill="#2774D3" d="M0 0h144v144H0z"/><path fill="#fff" fill-opacity=".1" fill-rule="evenodd" d="M0 144h23.624v-7.024H8.629V80.249L38.78 144h17.339l28.181-62.702v55.678H71.472V144h52.288v-6.465h-15.519V77.523h15.938v-10.59H76.47l-23.907 56.446L26.21 66.933H0V144Z" clip-rule="evenodd"/><path fill="#fff" d="M57.225 108c-4.678 0-8.312-.385-10.899-1.156-2.532-.771-4.293-1.982-5.284-3.633-.99-1.651-1.486-3.798-1.486-6.44V84.055c0-1.761-.413-3.165-1.239-4.211-.77-1.046-1.926-1.789-3.468-2.23-1.486-.495-3.358-.742-5.614-.742V67.21c2.256 0 4.128-.22 5.614-.66 1.542-.496 2.698-1.267 3.468-2.313.826-1.1 1.239-2.504 1.239-4.21V47.229c0-1.981.247-3.688.743-5.119.55-1.431 1.486-2.587 2.807-3.468 1.321-.88 3.11-1.541 5.367-1.981 2.312-.44 5.23-.661 8.752-.661v9.083c-1.43 0-2.67.165-3.715.495-1.046.33-1.872.908-2.477 1.734-.55.77-.826 1.927-.826 3.468v12.055c0 2.532-.798 4.541-2.395 6.027-1.596 1.487-3.935 2.45-7.018 2.89v.496c3.083.44 5.422 1.403 7.019 2.89 1.596 1.486 2.394 3.495 2.394 6.027V93.22c0 1.541.275 2.697.826 3.468.605.826 1.43 1.376 2.477 1.651 1.046.33 2.284.523 3.715.578V108ZM86.775 98.917c1.43-.055 2.67-.247 3.715-.578 1.046-.275 1.844-.825 2.395-1.65.605-.772.908-1.927.908-3.469V81.165c0-2.532.798-4.541 2.394-6.027 1.652-1.487 3.991-2.45 7.019-2.89v-.496c-3.028-.44-5.367-1.403-7.019-2.89-1.596-1.486-2.394-3.495-2.394-6.027V50.78c0-1.541-.303-2.697-.908-3.468-.55-.826-1.349-1.404-2.395-1.734-1.046-.33-2.284-.495-3.715-.495V36c3.523 0 6.412.22 8.67.66 2.311.44 4.128 1.102 5.449 1.982 1.321.88 2.229 2.037 2.725 3.468.55 1.431.825 3.138.825 5.12v12.798c0 1.706.386 3.11 1.156 4.21.826 1.046 2.01 1.817 3.551 2.313 1.541.44 3.413.66 5.614.66v9.66c-2.201 0-4.073.248-5.614.744-1.541.44-2.725 1.183-3.551 2.229-.77 1.046-1.156 2.45-1.156 4.211v12.716c0 2.642-.495 4.789-1.486 6.44-.991 1.651-2.752 2.862-5.284 3.633-2.532.771-6.165 1.156-10.9 1.156v-9.083Z"/></svg>