<svg xmlns="http://www.w3.org/2000/svg" width="72" height="72" fill="none"><path fill="#2774D3" d="M0 0h72v72H0z"/><path fill="#fff" fill-opacity=".1" fill-rule="evenodd" d="M0 72h11.812v-3.512H4.315V40.125L19.389 72h8.67l14.09-31.351v27.839h-6.413V72H61.88v-3.233h-7.76V38.762h7.97v-5.296H38.234L26.282 61.69 13.105 33.466H0V72Z" clip-rule="evenodd"/><path fill="#fff" d="M28.613 54c-2.34 0-4.156-.193-5.45-.578-1.266-.385-2.147-.99-2.642-1.816-.495-.826-.743-1.9-.743-3.22v-6.358c0-.881-.207-1.583-.62-2.106-.385-.523-.963-.894-1.733-1.115-.744-.247-1.68-.371-2.808-.371v-4.83c1.129 0 2.064-.11 2.808-.33.77-.248 1.348-.634 1.734-1.157.412-.55.619-1.252.619-2.105v-6.4c0-.99.124-1.843.371-2.559a3.598 3.598 0 0 1 1.404-1.734c.66-.44 1.555-.77 2.684-.99 1.155-.22 2.614-.331 4.376-.331v4.541c-.716 0-1.335.083-1.858.248a2.375 2.375 0 0 0-1.239.867c-.275.385-.412.963-.412 1.734v6.027c0 1.267-.4 2.271-1.198 3.014-.798.743-1.968 1.225-3.509 1.445v.248c1.541.22 2.711.702 3.51 1.445.797.743 1.197 1.747 1.197 3.014v6.027c0 .77.137 1.349.412 1.734.303.413.716.688 1.239.826.523.165 1.142.261 1.858.289V54ZM43.387 49.459c.716-.028 1.335-.124 1.858-.29.523-.137.922-.412 1.197-.825.303-.385.455-.963.455-1.734v-6.027c0-1.267.399-2.271 1.197-3.014.825-.743 1.995-1.225 3.509-1.445v-.248c-1.514-.22-2.684-.702-3.51-1.445-.797-.743-1.197-1.747-1.197-3.013V25.39c0-.77-.15-1.349-.454-1.734-.275-.413-.674-.702-1.197-.867-.523-.165-1.142-.248-1.858-.248V18c1.762 0 3.207.11 4.335.33 1.156.22 2.064.55 2.725.991.66.44 1.115 1.018 1.362 1.734.276.716.413 1.569.413 2.56v6.399c0 .853.193 1.555.578 2.105.413.523 1.005.909 1.775 1.156.771.22 1.707.33 2.808.33v4.83c-1.101 0-2.037.125-2.808.372-.77.22-1.362.592-1.775 1.115-.385.523-.578 1.225-.578 2.106v6.357c0 1.321-.248 2.395-.743 3.22-.495.826-1.376 1.432-2.642 1.817s-3.083.578-5.45.578v-4.541Z"/></svg>