<svg xmlns="http://www.w3.org/2000/svg" width="144" height="144" fill="none"><path fill="#2774D3" d="M0 0h144v144H0z"/><path fill="#fff" fill-rule="evenodd" d="M67.867 36a.667.667 0 0 0-.667.667v34.666c0 .368.299.667.667.667h8.266a.667.667 0 0 0 .667-.667V36.667a.667.667 0 0 0-.667-.667h-8.266ZM108 72c0-10.925-4.8-21-12-26.4-7.2-5.4-12 2.4-7.2 6.15 4.8 3.45 9.6 11.313 9.6 20.25 0 15.906-12 26.4-26.4 26.4-14.4 0-26.4-10.494-26.4-26.4 0-10.82 5.898-16.605 8.777-19.43.314-.307.592-.58.823-.82 3.6-3.75 0-10.95-7.2-6.15-7.2 4.8-12 15.214-12 26.4 0 19.882 16.118 36 36 36s36-16.118 36-36Z" clip-rule="evenodd"/><path fill="#fff" fill-opacity=".1" fill-rule="evenodd" d="M0 144h23.624v-7.024H8.629V80.249L38.78 144h17.339l28.181-62.702v55.678H71.472V144h52.288v-6.465h-15.519V77.523h15.938v-10.59H76.47l-23.907 56.446L26.21 66.933H0V144Z" clip-rule="evenodd"/></svg>