<svg xmlns="http://www.w3.org/2000/svg" width="72" height="72" fill="none"><path fill="#2774D3" d="M0 0h72v72H0z"/><path fill="#fff" fill-rule="evenodd" d="M34.267 18a.667.667 0 0 0-.667.667v16.666c0 .369.298.667.667.667h3.466a.667.667 0 0 0 .667-.667V18.667a.667.667 0 0 0-.667-.667h-3.466ZM54 36c0-5.462-2.4-10.5-6-13.2-3.6-2.7-6 1.2-3.6 3.075C46.8 27.6 49.2 31.532 49.2 36c0 7.953-6 13.2-13.2 13.2-7.2 0-13.2-5.247-13.2-13.2 0-5.41 2.95-8.303 4.389-9.715.157-.154.296-.29.411-.41C29.4 24 27.6 20.4 24 22.8c-3.6 2.4-6 7.607-6 13.2 0 9.941 8.059 18 18 18s18-8.059 18-18Z" clip-rule="evenodd"/><path fill="#fff" fill-opacity=".1" fill-rule="evenodd" d="M0 72h11.812v-3.512H4.315V40.125L19.389 72h8.67l14.09-31.351v27.839h-6.413V72H61.88v-3.233h-7.76V38.762h7.97v-5.296H38.234L26.282 61.69 13.105 33.466H0V72Z" clip-rule="evenodd"/></svg>